PathFileType	3	(X/Y/Z)	.\ExampleData\generated\LevelGround_ccw_fast_01.trc
DataRate	CameraRate	NumFrames	NumMarkers	Units	OrigDataRate	OrigDataStartFrame	OrigNumFrames
200.0	200.0	12	28	mm	200.0	0	5952	
Frame#	Time	L_ASIS	R_ASIS	L_PSIS	R_PSIS	R_Thigh_Upper	R_Knee_Lat	R_Thigh_Front	R_Thigh_Rear	L_Thigh_Upper	L_Thigh_Front	L_Thigh_Rear	L_Knee_Lat	L_Shank_Upper	L_Shank_Front	L_Shank_Rear	L_Ankle_Lat	R_Shank_Upper	R_Shank_Rear	R_Shank_Front	R_Ankle_Lat	R_Heel	R_Toe_Tip	R_Toe_Med	R_Toe_Lat	L_Heel	L_Toe_Tip	L_Toe_Med	L_Toe_Lat	
		X1	Y1	Z1	X2	Y2	Z2	X3	Y3	Z3	X4	Y4	Z4	X5	Y5	Z5	X6	Y6	Z6	X7	Y7	Z7	X8	Y8	Z8	X9	Y9	Z9	X10	Y10	Z10	X11	Y11	Z11	X12	Y12	Z12	X13	Y13	Z13	X14	Y14	Z14	X15	Y15	Z15	X16	Y16	Z16	X17	Y17	Z17	X18	Y18	Z18	X19	Y19	Z19	X20	Y20	Z20	X21	Y21	Z21	X22	Y22	Z22	X23	Y23	Z23	X24	Y24	Z24	X25	Y25	Z25	X26	Y26	Z26	X27	Y27	Z27	X28	Y28	Z28	
0	0	-653.60486	1013.0294	-896.55348	-533.15505	1020.6737	-654.5996	-782.07547	1058.3168	-757.3202	-726.50353	1068.3038	-647.14803	-569.77395	832.97159	-561.27562	-564.19239	510.79169	-586.91895	-513.80034	781.49795	-592.49039	-570.97039	765.23731	-556.55819	-754.09884	861.76067	-905.59696	-723.06155	788.49058	-918.89848	-787.19356	796.1996	-879.54498	-742.94678	490.11601	-867.19061	-816.90327	360.02082	-865.47841	-783.25799	303.29376	-866.85064	-825.43239	292.05499	-842.46656	-785.43642	69.73261	-832.96798	-605.7004	370.90859	-539.56016	-636.72042	310.28184	-547.34501	-577.1766	308.92227	-556.68874	-598.60678	68.604772	-578.09685	-668.52378	29.607472	-595.36008	-465.55897	50.288861	-669.9227	-473.99419	25.843607	-696.39154	-486.06506	24.407981	-577.73464	-822.48079	31.315545	-769.98169	-629.40377	44.412705	-873.52423	-612.70424	22.133933	-849.76882	-712.48231	15.697478	-918.23809
1	0.005	-653.60134	1013.0308	-896.54328	-533.1602	1020.6794	-654.5922	-782.4725	1058.234	-757.19154	-726.50253	1068.2992	-647.14491	-569.76601	832.97848	-561.25159	-564.22169	510.76404	-586.91106	-513.80763	781.50088	-592.47407	-570.94982	765.21889	-556.54509	-754.10253	861.7571	-905.58515	-722.79311	788.59362	-919.28789	-787.19754	796.20305	-879.5396	-742.93885	490.12236	-867.21771	-816.90602	360.01634	-865.47556	-783.27238	303.28329	-866.85429	-825.45304	292.06837	-842.47558	-785.42584	69.728946	-832.97637	-605.70143	370.91029	-539.56562	-636.72768	310.29416	-547.34417	-577.18263	308.92163	-556.69856	-598.61066	68.606557	-578.10982	-668.53513	29.621673	-595.35475	-465.55358	50.297455	-669.91789	-474.00671	25.835957	-696.42547	-486.06543	24.391963	-577.75174	-822.47861	31.309931	-769.99107	-629.40847	44.411224	-873.5269	-612.70546	22.137168	-849.76902	-712.47514	15.689985	-918.22973
2	0.01	-653.5977	1013.0327	-896.53227	-533.16548	1020.6851	-654.58315	-782.85194	1058.1546	-757.0686	-726.49773	1068.2926	-647.14228	-569.75834	832.98529	-561.22634	-564.24961	510.73799	-586.9024	-513.81524	781.504	-592.45715	-570.93129	765.20137	-556.53133	-754.10697	861.75449	-905.57388	-722.53576	788.69277	-919.66251	-787.20192	796.20718	-879.53307	-742.93237	490.12875	-867.24208	-816.90937	360.01247	-865.4718	-783.28741	303.27471	-866.85748	-825.47297	292.08174	-842.48458	-785.41625	69.726109	-832.98363	-605.70275	370.91145	-539.57024	-636.73502	310.30562	-547.34316	-577.18846	308.92098	-556.70723	-598.61447	68.608167	-578.12224	-668.54582	29.635038	-595.34956	-465.54841	50.305905	-669.9132	-474.01903	25.829203	-696.4592	-486.0658	24.376316	-577.76796	-822.47686	31.305034	-769.99993	-629.41302	44.410317	-873.5286	-612.70668	22.140883	-849.76907	-712.46815	15.681644	-918.22062
3	0.015	-653.59395	1013.0348	-896.52053	-533.17078	1020.6908	-654.57234	-783.20167	1058.0824	-756.95498	-726.48907	1068.2843	-647.14004	-569.75145	832.9919	-561.20029	-564.27521	510.71453	-586.89292	-513.82304	781.5072	-592.43971	-570.91561	765.18544	-556.51706	-754.11229	861.75297	-905.56351	-722.2974	788.78468	-920.00943	-787.2067	796.21223	-879.52508	-742.92762	490.1353	-867.26354	-816.91327	360.00945	-865.46714	-783.30277	303.26875	-866.8597	-825.49147	292.09456	-842.49367	-785.4079	69.724232	-832.98943	-605.70445	370.91201	-539.57373	-636.74231	310.31585	-547.34197	-577.19389	308.92033	-556.7143	-598.61814	68.609657	-578.13375	-668.55549	29.646805	-595.3448	-465.54351	50.313901	-669.90867	-474.03067	25.823418	-696.49143	-486.06616	24.361942	-577.78256	-822.47557	31.300917	-770.00815	-629.41727	44.410105	-873.5292	-612.70776	22.145053	-849.76893	-712.46165	15.672556	-918.21102
4	0.02	-653.59016	1013.0371	-896.50808	-533.17612	1020.6962	-654.55969	-783.5137	1058.0196	-756.85305	-726.47686	1068.2744	-647.13815	-569.74583	832.99822	-561.17384	-564.29795	510.69422	-586.88264	-513.83106	781.5103	-592.42174	-570.90339	765.17158	-556.50239	-754.11849	861.75266	-905.5543	-722.08327	788.86707	-920.32038	-787.21187	796.21847	-879.51538	-742.92481	490.14204	-867.28177	-816.91769	360.00749	-865.46158	-783.3183	303.26584	-866.86061	-825.50817	292.10641	-842.50288	-785.40099	69.723361	-832.99356	-605.70664	370.9119	-539.57591	-636.74945	310.32451	-547.34054	-577.19877	308.91964	-556.71938	-598.62155	68.611037	-578.14397	-668.5642	29.656867	-595.34049	-465.53885	50.321219	-669.90417	-474.04139	25.818677	-696.52137	-486.06655	24.34938	-577.79498	-822.47468	31.29745	-770.01571	-629.42118	44.410628	-873.52859	-612.70866	22.149605	-849.76848	-712.45586	15.663078	-918.2012
5	0.025	-653.58637	1013.0395	-896.49491	-533.18161	1020.7011	-654.54509	-783.78358	1057.9666	-756.76415	-726.46138	1068.2635	-647.1366	-569.7419	833.00413	-561.14736	-564.31777	510.67719	-586.8717	-513.83942	781.51314	-592.40314	-570.895	765.16001	-556.48738	-754.12546	861.75364	-905.54636	-721.89613	788.93868	-920.59099	-787.21744	796.22601	-879.50389	-742.92408	490.14895	-867.29647	-816.92264	360.00673	-865.45509	-783.33394	303.26614	-866.85996	-825.52299	292.11705	-842.51227	-785.3956	69.723448	-832.99596	-605.70943	370.91096	-539.57663	-636.75635	310.33129	-547.3388	-577.20305	308.91875	-556.72226	-598.62457	68.612201	-578.15253	-668.5722	29.66537	-595.33653	-465.53439	50.327689	-669.89946	-474.05118	25.815028	-696.54866	-486.06699	24.338711	-577.80496	-822.47407	31.294378	-770.02264	-629.42472	44.411829	-873.52669	-612.70936	22.154393	-849.76764	-712.45094	15.653809	-918.19138
6	0.03	-653.58262	1013.0416	-896.481	-533.18748	1020.7051	-654.5285	-784.00979	1057.923	-756.68869	-726.44292	1068.2516	-647.13542	-569.73984	833.00952	-561.12113	-564.33501	510.66316	-586.86034	-513.84827	781.51551	-592.3839	-570.89043	765.15075	-556.47204	-754.13301	861.7559	-905.53969	-721.73694	788.99894	-920.81991	-787.22335	796.23477	-879.49076	-742.92541	490.15606	-867.3076	-816.92811	360.00721	-865.44765	-783.34965	303.26961	-866.8576	-825.53606	292.12633	-842.52194	-785.39171	69.72434	-832.99672	-605.71286	370.90901	-539.57583	-636.76295	310.33591	-547.33662	-577.20668	308.91746	-556.72286	-598.62698	68.61298	-578.15903	-668.5797	29.672574	-595.33285	-465.53009	50.333169	-669.89419	-474.06006	25.812409	-696.57309	-486.06746	24.329628	-577.81255	-822.47354	31.291315	-770.02909	-629.42788	44.413546	-873.52351	-612.70989	22.159192	-849.76631	-712.44698	15.645429	-918.18182
7	0.035	-653.57886	1013.0432	-896.46635	-533.19395	1020.7079	-654.50999	-784.19341	1057.8882	-756.62617	-726.42184	1068.2391	-647.13456	-569.73967	833.01434	-561.09542	-564.35035	510.65145	-586.84884	-513.85768	781.51723	-592.36406	-570.88938	765.14358	-556.4564	-754.14082	861.75934	-905.53421	-721.60539	789.04779	-921.00809	-787.22942	796.24443	-879.47642	-742.92863	490.1634	-867.31538	-816.93403	360.00877	-865.43937	-783.36538	303.276	-866.85347	-825.54764	292.13417	-842.53207	-785.38917	69.725779	-832.99606	-605.71695	370.9059	-539.57353	-636.76921	310.33823	-547.33389	-577.20969	308.91551	-556.72122	-598.62858	68.613228	-578.16314	-668.58692	29.678806	-595.32935	-465.52586	50.337532	-669.88806	-474.06803	25.810569	-696.59438	-486.06794	24.32173	-577.81794	-822.47275	31.287669	-770.03539	-629.43068	44.415515	-873.51912	-612.71027	22.163716	-849.76446	-712.44401	15.638537	-918.17279
8	0.04	-653.575	1013.044	-896.45101	-533.20123	1020.709	-654.48973	-784.33774	1057.8614	-756.57522	-726.39876	1068.2265	-647.13387	-569.74136	833.01856	-561.07049	-564.36462	510.64125	-586.83746	-513.86763	781.51811	-592.34368	-570.89131	765.13821	-556.4405	-754.14855	861.76371	-905.52975	-721.5002	789.08557	-921.15807	-787.23535	796.25453	-879.46145	-742.93348	490.17093	-867.32026	-816.94025	360.01118	-865.43045	-783.38098	303.28493	-866.84757	-825.55803	292.14058	-842.54277	-785.38766	69.727423	-832.99427	-605.72165	370.90155	-539.56983	-636.77511	310.33819	-547.33052	-577.21206	308.91269	-556.71741	-598.62923	68.612891	-578.16466	-668.59404	29.684405	-595.32594	-465.52164	50.340691	-669.88082	-474.07512	25.809097	-696.6123	-486.06839	24.314769	-577.82138	-822.47131	31.282727	-770.04199	-629.43311	44.417418	-873.51371	-612.71049	22.167648	-849.76205	-712.44203	15.633555	-918.16459
9	0.045	-653.57093	1013.0437	-896.43504	-533.20938	1020.7083	-654.468	-784.4475	1057.8421	-756.53396	-726.37416	1068.2141	-647.13323	-569.74477	833.02226	-561.04638	-564.37852	510.63187	-586.82634	-513.87804	781.518	-592.3228	-570.89565	765.13438	-556.42444	-754.15593	861.76862	-905.52605	-721.41937	789.11298	-921.27348	-787.24079	796.26452	-879.44642	-742.93961	490.17852	-867.32291	-816.94655	360.01413	-865.42113	-783.3962	303.29586	-866.83992	-825.56748	292.14564	-842.55405	-785.3868	69.728938	-832.9917	-605.72691	370.89603	-539.56483	-636.7807	310.33596	-547.32641	-577.21382	308.90893	-556.71151	-598.62887	68.612016	-578.16355	-668.60125	29.689717	-595.32249	-465.51751	50.342646	-669.87245	-474.08147	25.807555	-696.62686	-486.06882	24.308659	-577.82313	-822.46888	31.2759	-770.04929	-629.43518	44.418957	-873.50745	-612.71055	22.170716	-849.75912	-712.44097	15.630669	-918.15748
10	0.05	-653.56654	1013.0422	-896.41854	-533.2183	1020.7058	-654.44511	-784.52806	1057.8297	-756.50038	-726.34816	1068.2018	-647.13256	-569.74959	833.02555	-561.02284	-564.3923	510.62305	-586.81541	-513.88894	781.51677	-592.3014	-570.902	765.13192	-556.40833	-754.16283	861.77362	-905.52276	-721.36043	789.13124	-921.35846	-787.24549	796.27396	-879.43176	-742.94664	490.18604	-867.32405	-816.95274	360.01733	-865.41165	-783.41079	303.30805	-866.83072	-825.57611	292.14947	-842.56582	-785.38619	69.730062	-832.98867	-605.7327	370.88952	-539.55863	-636.78608	310.33182	-547.32155	-577.21509	308.90432	-556.70365	-598.62761	68.610738	-578.15999	-668.60874	29.695121	-595.31883	-465.51365	50.343549	-669.86311	-474.08741	25.805646	-696.63838	-486.06925	24.303343	-577.82348	-822.4653	31.266884	-770.05755	-629.43696	44.419916	-873.50056	-612.71048	22.172768	-849.75572	-712.44071	15.629782	-918.15159
11	0.055	-653.56176	1013.0397	-896.40166	-533.2278	1020.7019	-654.42138	-784.58488	1057.8234	-756.47253	-726.32055	1068.1893	-647.13187	-569.75545	833.0286	-560.99943	-564.40577	510.61502	-586.80449	-513.90048	781.5143	-592.27945	-570.91021	765.13073	-556.39223	-754.16934	861.77832	-905.51946	-721.32048	789.14196	-921.41709	-787.24946	796.28263	-879.41758	-742.95425	490.19338	-867.32443	-816.95871	360.02049	-865.40212	-783.42457	303.32054	-866.82041	-825.58404	292.1522	-842.5779	-785.38556	69.730648	-832.98543	-605.73898	370.88232	-539.5513	-636.79143	310.3262	-547.31594	-577.21611	308.89908	-556.69414	-598.62562	68.609247	-578.15432	-668.61668	29.700999	-595.31472	-465.51025	50.343718	-669.85305	-474.09325	25.803282	-696.64735	-486.06969	24.298755	-577.82272	-822.46053	31.255615	-770.06687	-629.43856	44.420184	-873.49325	-612.71035	22.173809	-849.75194	-712.4411	15.630546	-918.14679
